Coordinates
version=1
nRows=27
nColumns=12
inDegrees=yes

Units are S.I. units (second, meters, Newtons, ...)
Angles are in degrees

endheader
time	SC_y	SC_z	SC_x	AC_y	AC_z	AC_x	GH_y	GH_z	GH_yy	EL_x	PS_y
       0.0              -47.65          14.08          82.85          63.74          4.906          -13.9         -149.2          20.11           81.4          134.4          118.5
  0.002947              -47.64          14.08          82.84          63.74          4.906         -13.89         -149.2          20.12          81.39          134.4          118.5
  0.005894              -47.64          14.08          82.84          63.73          4.905         -13.89         -149.1          20.12          81.39          134.4          118.5
   0.00884              -47.63          14.08          82.83          63.73          4.905         -13.89         -149.1          20.13          81.38          134.4          118.4
   0.01179              -47.63          14.08          82.82          63.72          4.904         -13.89         -149.0          20.14          81.37          134.4          118.4
   0.01473              -47.62          14.08          82.82          63.72          4.904         -13.89         -149.0          20.15          81.37          134.4          118.4
   0.01768              -47.61          14.08          82.81          63.71          4.903         -13.89         -148.9          20.16          81.36          134.4          118.4
   0.02063               -47.6          14.08           82.8          63.71          4.903         -13.88         -148.8          20.17          81.35          134.3          118.4
   0.02357               -47.6          14.08           82.8           63.7          4.902         -13.88         -148.8          20.18          81.34          134.3          118.3
   0.02652              -47.59          14.07          82.79          63.69          4.901         -13.88         -148.7          20.19          81.33          134.3          118.3
   0.02947              -47.58          14.07          82.78          63.68            4.9         -13.88         -148.6           20.2          81.32          134.3          118.3
   0.03241              -47.57          14.07          82.77          63.67          4.899         -13.87         -148.5          20.21          81.31          134.3          118.3
   0.03536              -47.56          14.07          82.76          63.66          4.898         -13.87         -148.4          20.22          81.29          134.3          118.2
   0.03831              -47.54          14.07          82.75          63.65          4.897         -13.87         -148.3          20.24          81.28          134.3          118.2
   0.04125              -47.53          14.07          82.73          63.64          4.896         -13.86         -148.2          20.25          81.26          134.3          118.2
    0.0442              -47.52          14.06          82.72          63.63          4.895         -13.86         -148.1          20.27          81.25          134.3          118.1
   0.04715               -47.5          14.06          82.71          63.62          4.894         -13.86         -148.0          20.29          81.23          134.2          118.1
    0.0501              -47.48          14.06          82.69           63.6          4.892         -13.85         -147.8          20.31          81.21          134.2          118.1
   0.05304              -47.47          14.06          82.67          63.59           4.89         -13.85         -147.6          20.33          81.19          134.2          118.0
   0.05599              -47.45          14.05          82.66          63.57          4.889         -13.84         -147.5          20.36          81.17          134.2          118.0
   0.05894              -47.42          14.05          82.64          63.55          4.887         -13.84         -147.3          20.38          81.14          134.2          117.9
   0.06188               -47.4          14.05          82.61          63.53          4.885         -13.83         -147.1          20.41          81.11          134.1          117.9
   0.06483              -47.37          14.04          82.59          63.51          4.882         -13.82         -146.8          20.44          81.08          134.1          117.8
   0.06778              -47.34          14.04          82.56          63.48           4.88         -13.81         -146.6          20.48          81.05          134.1          117.7
   0.07072              -47.31          14.03          82.53          63.45          4.877          -13.8         -146.3          20.52          81.01          134.1          117.6
   0.07367              -47.27          14.03          82.49          63.42          4.874         -13.79         -146.0          20.56          80.97          134.0          117.5
   0.07662              -47.23          14.02          82.46          63.39           4.87         -13.78         -145.6          20.61          80.92          134.0          117.4
